<?xml version="1.0" encoding="UTF-8"?> <svg xmlns="https://www.w3.org/2000/svg" xmlns:xlink="https://www.w3.org/1999/xlink" width="212px" height="86px" viewBox="0 0 212 86"><!-- Generator: Sketch 3.8.1 (29687) - https://www.bohemiancoding.com/sketch --><title>Group 5</title><desc>Created with Sketch.</desc><defs><rect id="path-1" x="0" y="0" width="211.115824" height="85.9775239" rx="8"></rect><mask id="mask-2" maskContentUnits="userSpaceOnUse" maskUnits="objectBoundingBox" x="0" y="0" width="211.115824" height="85.9775239" fill="white"><use xlink:href="#path-1"></use></mask></defs><g id="Page-1" stroke="none" stroke-width="1" fill="none" fill-rule="evenodd"><g id="Group-5"><use id="Rectangle-1" stroke="#979797" mask="url(#mask-2)" stroke-width="2" fill="#5B2F3D" xlink:href="#path-1"></use><g id="Group-4" transform="translate(10.395604, 14.175824)" fill="#FFFFFF"><g id="Group"><g id="Group-3"><path d="M46.9342706,2.18536009 L46.9342706,15.159797 L48.1714216,15.159797 L48.1714216,4.18422291 L48.2078084,4.18422291 L55.7762616,15.159797 L57.1589598,15.159797 L57.1589598,2.18536009 L55.9218088,2.18536009 L55.9218088,13.1609341 L55.885422,13.1609341 L48.3169688,2.18536009 L46.9342706,2.18536009 Z M60.3064175,8.67257853 C60.3064175,7.95783006 60.4004157,7.26126362 60.5884151,6.5828583 C60.7764145,5.90445298 61.0675059,5.29571448 61.4616982,4.75662454 C61.8558904,4.2175346 62.3622682,3.78445198 62.9808468,3.4573637 C63.5994254,3.13027543 64.3392828,2.96673374 65.2004413,2.96673374 C66.0615997,2.96673374 66.7984249,3.13027543 67.410939,3.4573637 C68.0234531,3.78445198 68.5267987,4.2175346 68.920991,4.75662454 C69.3151832,5.29571448 69.6062746,5.90445298 69.794274,6.5828583 C69.9822734,7.26126362 70.0762717,7.95783006 70.0762717,8.67257853 C70.0762717,9.37521261 69.9822734,10.0687505 69.794274,10.753213 C69.6062746,11.4376755 69.3151832,12.0494426 68.920991,12.5885325 C68.5267987,13.1276225 68.0234531,13.5607051 67.410939,13.8877933 C66.7984249,14.2148816 66.0615997,14.3784233 65.2004413,14.3784233 C64.3392828,14.3784233 63.5994254,14.2148816 62.9808468,13.8877933 C62.3622682,13.5607051 61.8558904,13.1276225 61.4616982,12.5885325 C61.0675059,12.0494426 60.7764145,11.4376755 60.5884151,10.753213 C60.4004157,10.0687505 60.3064175,9.37521261 60.3064175,8.67257853 L60.3064175,8.67257853 Z M59.0692665,8.67257853 C59.0692665,9.5690427 59.196619,10.4230937 59.4513278,11.2347572 C59.7060366,12.0464207 60.0880941,12.7611585 60.5975118,13.3789919 C61.1069295,13.9968253 61.7467242,14.4904789 62.5169152,14.8599675 C63.2871062,15.2294562 64.1816059,15.4141977 65.2004413,15.4141977 C66.2192766,15.4141977 67.1107441,15.2294562 67.8748706,14.8599675 C68.6389971,14.4904789 69.2757597,13.9968253 69.7851773,13.3789919 C70.294595,12.7611585 70.6766525,12.0464207 70.9313613,11.2347572 C71.1860702,10.4230937 71.3134227,9.5690427 71.3134227,8.67257853 C71.3134227,7.77611435 71.1860702,6.92206332 70.9313613,6.11039982 C70.6766525,5.29873631 70.294595,4.58097002 69.7851773,3.95707941 C69.2757597,3.3331888 68.6389971,2.83650664 67.8748706,2.46701803 C67.1107441,2.09752942 66.2192766,1.91278789 65.2004413,1.91278789 C64.1816059,1.91278789 63.2871062,2.09752942 62.5169152,2.46701803 C61.7467242,2.83650664 61.1069295,3.3331888 60.5975118,3.95707941 C60.0880941,4.58097002 59.7060366,5.29873631 59.4513278,6.11039982 C59.196619,6.92206332 59.0692665,7.77611435 59.0692665,8.67257853 L59.0692665,8.67257853 Z M74.4790738,8.34549188 L74.4790738,3.23930594 L79.1001966,3.23930594 C80.046258,3.23930594 80.749729,3.46947572 81.2106307,3.92982219 C81.6715324,4.39016866 81.9019797,5.02010701 81.9019797,5.81965613 C81.9019797,6.2194307 81.8261747,6.57377102 81.6745623,6.88268773 C81.5229499,7.19160443 81.3197923,7.45508826 81.0650835,7.67314711 C80.8103746,7.89120597 80.5132188,8.0577762 80.173607,8.17286282 C79.8339952,8.28794944 79.4761954,8.34549188 79.1001966,8.34549188 L74.4790738,8.34549188 Z M73.2419228,2.18536009 L73.2419228,15.159797 L74.4790738,15.159797 L74.4790738,9.39943773 L79.1729702,9.39943773 C79.7551618,9.37520897 80.2130244,9.47212257 80.5465717,9.69018142 C80.8801189,9.90824027 81.134824,10.1959525 81.3106943,10.5533267 C81.4865647,10.910701 81.6017884,11.3165266 81.6563689,11.7708159 C81.7109493,12.2251052 81.750368,12.6824162 81.774626,13.1427627 C81.786755,13.2760208 81.7988838,13.4335054 81.8110128,13.6152211 C81.8231417,13.7969369 81.8383028,13.9816784 81.8564962,14.1694513 C81.8746897,14.3572242 81.9050118,14.5389372 81.9474632,14.7145957 C81.9899147,14.8902542 82.0475266,15.0386532 82.1203005,15.159797 L83.4848053,15.159797 C83.3513864,15.00231 83.2452593,14.7812259 83.1664208,14.4965379 C83.0875824,14.21185 83.0299705,13.908995 82.9935836,13.5879639 C82.9571966,13.2669328 82.932939,12.9489351 82.92081,12.6339612 C82.908681,12.3189873 82.8965522,12.0524749 82.8844232,11.8344161 C82.8601652,11.4467559 82.8086178,11.0863585 82.7297793,10.753213 C82.6509409,10.4200675 82.5235884,10.1262982 82.347718,9.87189622 C82.1718476,9.61749423 81.9444324,9.40852429 81.6654656,9.24498015 C81.3864988,9.08143601 81.0347633,8.96937967 80.6102486,8.90880777 L80.6102486,8.87246481 C81.447149,8.70286348 82.0778471,8.31520911 82.5023618,7.70949007 C82.9268766,7.10377104 83.1391307,6.3890333 83.1391307,5.56525541 C83.1391307,4.98376514 83.0330037,4.47799733 82.8207463,4.04793681 C82.6084889,3.6178763 82.3234619,3.26656452 81.9656566,2.99399096 C81.6078514,2.72141739 81.1894074,2.51850456 80.7103122,2.38524637 C80.2312171,2.25198818 79.7248392,2.18536009 79.1911636,2.18536009 L73.2419228,2.18536009 Z M84.1033808,2.18536009 L84.1033808,3.23930594 L88.6153432,3.23930594 L88.6153432,15.159797 L89.8524942,15.159797 L89.8524942,3.23930594 L94.3826501,3.23930594 L94.3826501,2.18536009 L84.1033808,2.18536009 Z M95.6016077,2.18536009 L95.6016077,15.159797 L96.8387587,15.159797 L96.8387587,8.87246481 L104.552759,8.87246481 L104.552759,15.159797 L105.78991,15.159797 L105.78991,2.18536009 L104.552759,2.18536009 L104.552759,7.81851896 L96.8387587,7.81851896 L96.8387587,2.18536009 L95.6016077,2.18536009 Z M113.467524,2.18536009 L113.467524,15.159797 L114.704675,15.159797 L114.704675,8.98149369 L120.926816,8.98149369 L120.926816,7.92754784 L114.704675,7.92754784 L114.704675,3.23930594 L121.709132,3.23930594 L121.709132,2.18536009 L113.467524,2.18536009 Z M123.237378,2.18536009 L123.237378,15.159797 L131.751888,15.159797 L131.751888,14.1058511 L124.474529,14.1058511 L124.474529,2.18536009 L123.237378,2.18536009 Z M133.553034,8.67257853 C133.553034,7.95783006 133.647032,7.26126362 133.835032,6.5828583 C134.023031,5.90445298 134.314122,5.29571448 134.708315,4.75662454 C135.102507,4.2175346 135.608885,3.78445198 136.227463,3.4573637 C136.846042,3.13027543 137.585899,2.96673374 138.447058,2.96673374 C139.308216,2.96673374 140.045041,3.13027543 140.657555,3.4573637 C141.27007,3.78445198 141.773415,4.2175346 142.167607,4.75662454 C142.5618,5.29571448 142.852891,5.90445298 143.04089,6.5828583 C143.22889,7.26126362 143.322888,7.95783006 143.322888,8.67257853 C143.322888,9.37521261 143.22889,10.0687505 143.04089,10.753213 C142.852891,11.4376755 142.5618,12.0494426 142.167607,12.5885325 C141.773415,13.1276225 141.27007,13.5607051 140.657555,13.8877933 C140.045041,14.2148816 139.308216,14.3784233 138.447058,14.3784233 C137.585899,14.3784233 136.846042,14.2148816 136.227463,13.8877933 C135.608885,13.5607051 135.102507,13.1276225 134.708315,12.5885325 C134.314122,12.0494426 134.023031,11.4376755 133.835032,10.753213 C133.647032,10.0687505 133.553034,9.37521261 133.553034,8.67257853 L133.553034,8.67257853 Z M132.315883,8.67257853 C132.315883,9.5690427 132.443235,10.4230937 132.697944,11.2347572 C132.952653,12.0464207 133.334711,12.7611585 133.844128,13.3789919 C134.353546,13.9968253 134.993341,14.4904789 135.763532,14.8599675 C136.533723,15.2294562 137.428222,15.4141977 138.447058,15.4141977 C139.465893,15.4141977 140.357361,15.2294562 141.121487,14.8599675 C141.885614,14.4904789 142.522376,13.9968253 143.031794,13.3789919 C143.541211,12.7611585 143.923269,12.0464207 144.177978,11.2347572 C144.432687,10.4230937 144.560039,9.5690427 144.560039,8.67257853 C144.560039,7.77611435 144.432687,6.92206332 144.177978,6.11039982 C143.923269,5.29873631 143.541211,4.58097002 143.031794,3.95707941 C142.522376,3.3331888 141.885614,2.83650664 141.121487,2.46701803 C140.357361,2.09752942 139.465893,1.91278789 138.447058,1.91278789 C137.428222,1.91278789 136.533723,2.09752942 135.763532,2.46701803 C134.993341,2.83650664 134.353546,3.3331888 133.844128,3.95707941 C133.334711,4.58097002 132.952653,5.29873631 132.697944,6.11039982 C132.443235,6.92206332 132.315883,7.77611435 132.315883,8.67257853 L132.315883,8.67257853 Z M147.72569,8.34549188 L147.72569,3.23930594 L152.346813,3.23930594 C153.292874,3.23930594 153.996345,3.46947572 154.457247,3.92982219 C154.918149,4.39016866 155.148596,5.02010701 155.148596,5.81965613 C155.148596,6.2194307 155.072791,6.57377102 154.921179,6.88268773 C154.769566,7.19160443 154.566409,7.45508826 154.3117,7.67314711 C154.056991,7.89120597 153.759835,8.0577762 153.420223,8.17286282 C153.080612,8.28794944 152.722812,8.34549188 152.346813,8.34549188 L147.72569,8.34549188 Z M146.488539,2.18536009 L146.488539,15.159797 L147.72569,15.159797 L147.72569,9.39943773 L152.419587,9.39943773 C153.001778,9.37520897 153.459641,9.47212257 153.793188,9.69018142 C154.126735,9.90824027 154.38144,10.1959525 154.557311,10.5533267 C154.733181,10.910701 154.848405,11.3165266 154.902985,11.7708159 C154.957566,12.2251052 154.996984,12.6824162 155.021242,13.1427627 C155.033371,13.2760208 155.0455,13.4335054 155.057629,13.6152211 C155.069758,13.7969369 155.084919,13.9816784 155.103113,14.1694513 C155.121306,14.3572242 155.151628,14.5389372 155.19408,14.7145957 C155.236531,14.8902542 155.294143,15.0386532 155.366917,15.159797 L156.731422,15.159797 C156.598003,15.00231 156.491876,14.7812259 156.413037,14.4965379 C156.334199,14.21185 156.276587,13.908995 156.2402,13.5879639 C156.203813,13.2669328 156.179555,12.9489351 156.167426,12.6339612 C156.155297,12.3189873 156.143169,12.0524749 156.13104,11.8344161 C156.106782,11.4467559 156.055234,11.0863585 155.976396,10.753213 C155.897557,10.4200675 155.770205,10.1262982 155.594334,9.87189622 C155.418464,9.61749423 155.191049,9.40852429 154.912082,9.24498015 C154.633115,9.08143601 154.28138,8.96937967 153.856865,8.90880777 L153.856865,8.87246481 C154.693765,8.70286348 155.324464,8.31520911 155.748978,7.70949007 C156.173493,7.10377104 156.385747,6.3890333 156.385747,5.56525541 C156.385747,4.98376514 156.27962,4.47799733 156.067363,4.04793681 C155.855105,3.6178763 155.570078,3.26656452 155.212273,2.99399096 C154.854468,2.72141739 154.436024,2.51850456 153.956929,2.38524637 C153.477834,2.25198818 152.971456,2.18536009 152.43778,2.18536009 L146.488539,2.18536009 Z M158.714502,2.18536009 L158.714502,15.159797 L159.951653,15.159797 L159.951653,2.18536009 L158.714502,2.18536009 Z M162.662469,2.18536009 L162.662469,15.159797 L167.156238,15.159797 C169.133264,15.1113394 170.622075,14.5571148 171.622717,13.4971065 C172.623359,12.4370982 173.123672,10.8289383 173.123672,8.67257853 C173.123672,6.51621876 172.623359,4.90805884 171.622717,3.84805053 C170.622075,2.78804222 169.133264,2.23381761 167.156238,2.18536009 L162.662469,2.18536009 Z M163.89962,14.1058511 L163.89962,3.23930594 L166.537663,3.23930594 C167.471595,3.23930594 168.275129,3.33924808 168.948288,3.53913537 C169.621447,3.73902265 170.17634,4.05702037 170.612984,4.49313808 C171.049627,4.92925578 171.371041,5.49256604 171.577234,6.18308574 C171.783427,6.87360544 171.886521,7.70342807 171.886521,8.67257853 C171.886521,9.64172898 171.783427,10.4715516 171.577234,11.1620713 C171.371041,11.852591 171.049627,12.4159013 170.612984,12.852019 C170.17634,13.2881367 169.621447,13.6061344 168.948288,13.8060217 C168.275129,14.005909 167.471595,14.1058511 166.537663,14.1058511 L163.89962,14.1058511 Z M176.962479,10.0717825 L179.564135,3.42102074 L182.074824,10.0717825 L176.962479,10.0717825 Z M178.927366,2.18536009 L173.705861,15.159797 L175.015786,15.159797 L176.580418,11.1257284 L182.493272,11.1257284 L184.076098,15.159797 L185.404215,15.159797 L180.310064,2.18536009 L178.927366,2.18536009 Z M55.4524683,28.2646585 C55.3528139,27.8789628 55.2157911,27.5243769 55.0413959,27.2008902 C54.8670006,26.8774035 54.6427816,26.5974673 54.3687319,26.3610732 C54.0946822,26.1246791 53.7739244,25.9411653 53.4064487,25.8105264 C53.038973,25.6798876 52.6123339,25.6145691 52.1265186,25.6145691 C51.4164809,25.6145691 50.8029926,25.7576476 50.2860353,26.043809 C49.7690779,26.3299703 49.3486672,26.7125498 49.0247903,27.1915589 C48.7009134,27.6705681 48.4611236,28.2148885 48.3054135,28.8245366 C48.1497035,29.4341846 48.0718497,30.0562651 48.0718497,30.6907967 C48.0718497,31.3253283 48.1497035,31.9474088 48.3054135,32.5570568 C48.4611236,33.1667048 48.7009134,33.7110253 49.0247903,34.1900344 C49.3486672,34.6690436 49.7690779,35.0516231 50.2860353,35.3377844 C50.8029926,35.6239457 51.4164809,35.7670242 52.1265186,35.7670242 C52.6497043,35.7670242 53.1105991,35.6768226 53.5092168,35.4964165 C53.9078345,35.3160105 54.2503914,35.0671783 54.5368979,34.7499125 C54.8234043,34.4326467 55.0476234,34.0625088 55.2095619,33.6394877 C55.3715003,33.2164666 55.4773815,32.7623479 55.5272087,32.2771178 L57.8067922,32.2771178 C57.756965,33.0733928 57.5856865,33.8012269 57.2929517,34.4606421 C57.0002168,35.1200574 56.6047193,35.689261 56.1064472,36.1682702 C55.6081751,36.6472793 55.0227141,37.0174172 54.3500468,37.2786949 C53.6773794,37.5399727 52.9362108,37.6706096 52.1265186,37.6706096 C51.1299744,37.6706096 50.2362122,37.4870958 49.4452053,37.1200628 C48.6541983,36.7530298 47.9846552,36.252255 47.4365559,35.6177234 C46.8884566,34.9831918 46.4680458,34.242916 46.175311,33.3968739 C45.8825761,32.5508317 45.7362109,31.648815 45.7362109,30.6907967 C45.7362109,29.7452202 45.8825761,28.8494243 46.175311,28.0033821 C46.4680458,27.1573399 46.8884566,26.4170642 47.4365559,25.7825325 C47.9846552,25.1480009 48.6541983,24.6441157 49.4452053,24.2708618 C50.2362122,23.8976079 51.1299744,23.7109838 52.1265186,23.7109838 C52.8739268,23.7109838 53.5777256,23.8136271 54.2379361,24.0189167 C54.8981467,24.2242064 55.4804934,24.522805 55.9849939,24.9147216 C56.4894945,25.3066382 56.8974486,25.7825297 57.2088687,26.3424106 C57.5202887,26.9022914 57.7133663,27.5430343 57.7881071,28.2646585 L55.4524683,28.2646585 Z M59.8808395,24.028248 L62.2164783,24.028248 L62.2164783,29.3284268 L68.2891392,29.3284268 L68.2891392,24.028248 L70.624778,24.028248 L70.624778,37.3533454 L68.2891392,37.3533454 L68.2891392,31.3439877 L62.2164783,31.3439877 L62.2164783,37.3533454 L59.8808395,37.3533454 L59.8808395,24.028248 Z M73.4275446,24.028248 L75.7631834,24.028248 L75.7631834,37.3533454 L73.4275446,37.3533454 L73.4275446,24.028248 Z M78.6220053,24.028248 L84.993628,24.028248 C86.4635307,24.028248 87.5659412,24.3455091 88.3008925,24.9800407 C89.0358439,25.6145723 89.403314,26.4979266 89.403314,27.6301301 C89.403314,28.2646617 89.3098894,28.7903197 89.1230374,29.2071199 C88.9361853,29.6239201 88.7181946,29.9598435 88.4690585,30.2149004 C88.2199225,30.4699572 87.9739043,30.6534709 87.7309966,30.7654471 C87.488089,30.8774233 87.3105822,30.9520729 87.198471,30.9893983 L87.198471,31.0267235 C87.3977798,31.0516071 87.6126565,31.1138152 87.8431073,31.2133495 C88.0735582,31.3128839 88.2884348,31.4715144 88.4877436,31.6892459 C88.6870525,31.9069773 88.8521026,32.1900239 88.982899,32.5383942 C89.1136955,32.8867645 89.1790927,33.3222209 89.1790927,33.8447763 C89.1790927,34.6286095 89.2382616,35.3408916 89.3566013,35.9816442 C89.4749409,36.6223967 89.658676,37.0796258 89.907812,37.3533454 L87.4040072,37.3533454 C87.229612,37.067184 87.1268449,36.749923 87.0957029,36.4015527 C87.0645609,36.0531824 87.0489901,35.7172589 87.0489901,35.3937722 C87.0489901,34.7841242 87.0116203,34.2584662 86.9368794,33.8167824 C86.8621386,33.3750986 86.7251159,33.0080711 86.525807,32.7156889 C86.3264982,32.4233067 86.0555668,32.2086889 85.7130047,32.0718292 C85.3704426,31.9349694 84.9313469,31.8665406 84.3957044,31.8665406 L80.9576441,31.8665406 L80.9576441,37.3533454 L78.6220053,37.3533454 L78.6220053,24.028248 Z M80.9576441,30.0935934 L84.7880917,30.0935934 C85.5354999,30.0935934 86.1022759,29.9163005 86.4884368,29.5617093 C86.8745977,29.2071181 87.0676752,28.6752393 87.0676752,27.9660569 C87.0676752,27.5430358 87.0053921,27.1977811 86.8808241,26.9302825 C86.7562561,26.6627839 86.5849776,26.4543869 86.3669836,26.3050854 C86.1489895,26.1557838 85.8998572,26.0562509 85.6195792,26.0064838 C85.3393011,25.9567166 85.0496848,25.9318334 84.7507215,25.9318334 L80.9576441,25.9318334 L80.9576441,30.0935934 Z M97.4565966,25.6145691 C96.7465589,25.6145691 96.1330706,25.7576476 95.6161133,26.043809 C95.099156,26.3299703 94.6787452,26.7125498 94.3548683,27.1915589 C94.0309914,27.6705681 93.7912016,28.2148885 93.6354915,28.8245366 C93.4797815,29.4341846 93.4019277,30.0562651 93.4019277,30.6907967 C93.4019277,31.3253283 93.4797815,31.9474088 93.6354915,32.5570568 C93.7912016,33.1667048 94.0309914,33.7110253 94.3548683,34.1900344 C94.6787452,34.6690436 95.099156,35.0516231 95.6161133,35.3377844 C96.1330706,35.6239457 96.7465589,35.7670242 97.4565966,35.7670242 C98.1666344,35.7670242 98.7801227,35.6239457 99.29708,35.3377844 C99.8140373,35.0516231 100.234448,34.6690436 100.558325,34.1900344 C100.882202,33.7110253 101.121992,33.1667048 101.277702,32.5570568 C101.433412,31.9474088 101.511266,31.3253283 101.511266,30.6907967 C101.511266,30.0562651 101.433412,29.4341846 101.277702,28.8245366 C101.121992,28.2148885 100.882202,27.6705681 100.558325,27.1915589 C100.234448,26.7125498 99.8140373,26.3299703 99.29708,26.043809 C98.7801227,25.7576476 98.1666344,25.6145691 97.4565966,25.6145691 L97.4565966,25.6145691 Z M97.4565966,23.7109838 C98.4531408,23.7109838 99.346903,23.8976079 100.13791,24.2708618 C100.928917,24.6441157 101.59846,25.1480009 102.146559,25.7825325 C102.694659,26.4170642 103.115069,27.1573399 103.407804,28.0033821 C103.700539,28.8494243 103.846904,29.7452202 103.846904,30.6907967 C103.846904,31.648815 103.700539,32.5508317 103.407804,33.3968739 C103.115069,34.242916 102.694659,34.9831918 102.146559,35.6177234 C101.59846,36.252255 100.928917,36.7530298 100.13791,37.1200628 C99.346903,37.4870958 98.4531408,37.6706096 97.4565966,37.6706096 C96.4600524,37.6706096 95.5662903,37.4870958 94.7752833,37.1200628 C93.9842763,36.7530298 93.3147332,36.252255 92.7666339,35.6177234 C92.2185346,34.9831918 91.7981238,34.242916 91.505389,33.3968739 C91.2126541,32.5508317 91.0662889,31.648815 91.0662889,30.6907967 C91.0662889,29.7452202 91.2126541,28.8494243 91.505389,28.0033821 C91.7981238,27.1573399 92.2185346,26.4170642 92.7666339,25.7825325 C93.3147332,25.1480009 93.9842763,24.6441157 94.7752833,24.2708618 C95.5662903,23.8976079 96.4600524,23.7109838 97.4565966,23.7109838 L97.4565966,23.7109838 Z M105.977007,24.028248 L111.862817,24.028248 C112.809534,24.028248 113.581844,24.1651057 114.179771,24.4388252 C114.777697,24.7125448 115.238592,25.054689 115.562469,25.4652683 C115.886346,25.8758476 116.10745,26.3237456 116.22579,26.8089756 C116.34413,27.2942057 116.403299,27.7421036 116.403299,28.1526829 C116.403299,28.5632622 116.34413,29.0080497 116.22579,29.4870589 C116.10745,29.9660681 115.886346,30.4108556 115.562469,30.8214349 C115.238592,31.2320142 114.777697,31.571048 114.179771,31.8385467 C113.581844,32.1060453 112.809534,32.2397926 111.862817,32.2397926 L108.312646,32.2397926 L108.312646,37.3533454 L105.977007,37.3533454 L105.977007,24.028248 Z M108.312646,30.3362073 L111.732021,30.3362073 C111.993614,30.3362073 112.261431,30.2988824 112.535481,30.2242317 C112.80953,30.1495809 113.061777,30.0282752 113.292228,29.8603109 C113.522679,29.6923467 113.709528,29.4683977 113.852781,29.1884573 C113.996034,28.9085169 114.06766,28.5570414 114.06766,28.1340203 C114.06766,27.6985574 114.005377,27.3377507 113.880809,27.0515894 C113.756241,26.7654281 113.588076,26.5383687 113.376311,26.3704045 C113.164545,26.2024402 112.921641,26.0873553 112.647591,26.0251464 C112.373542,25.9629374 112.080811,25.9318334 111.769391,25.9318334 L108.312646,25.9318334 L108.312646,30.3362073 Z M118.439976,24.028248 L124.811598,24.028248 C126.281501,24.028248 127.383912,24.3455091 128.118863,24.9800407 C128.853814,25.6145723 129.221284,26.4979266 129.221284,27.6301301 C129.221284,28.2646617 129.12786,28.7903197 128.941008,29.2071199 C128.754156,29.6239201 128.536165,29.9598435 128.287029,30.2149004 C128.037893,30.4699572 127.791875,30.6534709 127.548967,30.7654471 C127.306059,30.8774233 127.128553,30.9520729 127.016441,30.9893983 L127.016441,31.0267235 C127.21575,31.0516071 127.430627,31.1138152 127.661078,31.2133495 C127.891529,31.3128839 128.106405,31.4715144 128.305714,31.6892459 C128.505023,31.9069773 128.670073,32.1900239 128.800869,32.5383942 C128.931666,32.8867645 128.997063,33.3222209 128.997063,33.8447763 C128.997063,34.6286095 129.056232,35.3408916 129.174572,35.9816442 C129.292911,36.6223967 129.476646,37.0796258 129.725782,37.3533454 L127.221978,37.3533454 C127.047582,37.067184 126.944815,36.749923 126.913673,36.4015527 C126.882531,36.0531824 126.866961,35.7172589 126.866961,35.3937722 C126.866961,34.7841242 126.829591,34.2584662 126.75485,33.8167824 C126.680109,33.3750986 126.543086,33.0080711 126.343777,32.7156889 C126.144469,32.4233067 125.873537,32.2086889 125.530975,32.0718292 C125.188413,31.9349694 124.749317,31.8665406 124.213675,31.8665406 L120.775615,31.8665406 L120.775615,37.3533454 L118.439976,37.3533454 L118.439976,24.028248 Z M120.775615,30.0935934 L124.606062,30.0935934 C125.35347,30.0935934 125.920246,29.9163005 126.306407,29.5617093 C126.692568,29.2071181 126.885646,28.6752393 126.885646,27.9660569 C126.885646,27.5430358 126.823363,27.1977811 126.698795,26.9302825 C126.574227,26.6627839 126.402948,26.4543869 126.184954,26.3050854 C125.96696,26.1557838 125.717828,26.0562509 125.43755,26.0064838 C125.157272,25.9567166 124.867655,25.9318334 124.568692,25.9318334 L120.775615,25.9318334 L120.775615,30.0935934 Z M135.16315,24.028248 L137.648269,24.028248 L142.786675,37.3533454 L140.28287,37.3533454 L139.030967,33.8261137 L133.705711,33.8261137 L132.453809,37.3533454 L130.043429,37.3533454 L135.16315,24.028248 Z M134.341005,32.0531666 L138.414359,32.0531666 L136.415052,26.323748 L136.358997,26.323748 L134.341005,32.0531666 Z M153.063485,28.2646585 C152.963831,27.8789628 152.826808,27.5243769 152.652413,27.2008902 C152.478018,26.8774035 152.253799,26.5974673 151.979749,26.3610732 C151.705699,26.1246791 151.384941,25.9411653 151.017466,25.8105264 C150.64999,25.6798876 150.223351,25.6145691 149.737536,25.6145691 C149.027498,25.6145691 148.41401,25.7576476 147.897052,26.043809 C147.380095,26.3299703 146.959684,26.7125498 146.635807,27.1915589 C146.311931,27.6705681 146.072141,28.2148885 145.916431,28.8245366 C145.760721,29.4341846 145.682867,30.0562651 145.682867,30.6907967 C145.682867,31.3253283 145.760721,31.9474088 145.916431,32.5570568 C146.072141,33.1667048 146.311931,33.7110253 146.635807,34.1900344 C146.959684,34.6690436 147.380095,35.0516231 147.897052,35.3377844 C148.41401,35.6239457 149.027498,35.7670242 149.737536,35.7670242 C150.260721,35.7670242 150.721616,35.6768226 151.120234,35.4964165 C151.518852,35.3160105 151.861409,35.0671783 152.147915,34.7499125 C152.434421,34.4326467 152.658641,34.0625088 152.820579,33.6394877 C152.982517,33.2164666 153.088399,32.7623479 153.138226,32.2771178 L155.417809,32.2771178 C155.367982,33.0733928 155.196704,33.8012269 154.903969,34.4606421 C154.611234,35.1200574 154.215736,35.689261 153.717464,36.1682702 C153.219192,36.6472793 152.633731,37.0174172 151.961064,37.2786949 C151.288397,37.5399727 150.547228,37.6706096 149.737536,37.6706096 C148.740992,37.6706096 147.847229,37.4870958 147.056222,37.1200628 C146.265215,36.7530298 145.595672,36.252255 145.047573,35.6177234 C144.499474,34.9831918 144.079063,34.242916 143.786328,33.3968739 C143.493593,32.5508317 143.347228,31.648815 143.347228,30.6907967 C143.347228,29.7452202 143.493593,28.8494243 143.786328,28.0033821 C144.079063,27.1573399 144.499474,26.4170642 145.047573,25.7825325 C145.595672,25.1480009 146.265215,24.6441157 147.056222,24.2708618 C147.847229,23.8976079 148.740992,23.7109838 149.737536,23.7109838 C150.484944,23.7109838 151.188743,23.8136271 151.848953,24.0189167 C152.509164,24.2242064 153.091511,24.522805 153.596011,24.9147216 C154.100512,25.3066382 154.508466,25.7825297 154.819886,26.3424106 C155.131306,26.9022914 155.324383,27.5430343 155.399124,28.2646585 L153.063485,28.2646585 Z M156.277324,24.028248 L167.077318,24.028248 L167.077318,26.043809 L162.835798,26.043809 L162.835798,37.3533454 L160.500159,37.3533454 L160.500159,26.043809 L156.277324,26.043809 L156.277324,24.028248 Z M168.628182,24.028248 L170.963821,24.028248 L170.963821,37.3533454 L168.628182,37.3533454 L168.628182,24.028248 Z M182.828866,28.2646585 C182.729212,27.8789628 182.592189,27.5243769 182.417794,27.2008902 C182.243399,26.8774035 182.01918,26.5974673 181.74513,26.3610732 C181.47108,26.1246791 181.150322,25.9411653 180.782847,25.8105264 C180.415371,25.6798876 179.988732,25.6145691 179.502917,25.6145691 C178.792879,25.6145691 178.179391,25.7576476 177.662433,26.043809 C177.145476,26.3299703 176.725065,26.7125498 176.401188,27.1915589 C176.077312,27.6705681 175.837522,28.2148885 175.681812,28.8245366 C175.526102,29.4341846 175.448248,30.0562651 175.448248,30.6907967 C175.448248,31.3253283 175.526102,31.9474088 175.681812,32.5570568 C175.837522,33.1667048 176.077312,33.7110253 176.401188,34.1900344 C176.725065,34.6690436 177.145476,35.0516231 177.662433,35.3377844 C178.179391,35.6239457 178.792879,35.7670242 179.502917,35.7670242 C180.026102,35.7670242 180.486997,35.6768226 180.885615,35.4964165 C181.284233,35.3160105 181.62679,35.0671783 181.913296,34.7499125 C182.199802,34.4326467 182.424022,34.0625088 182.58596,33.6394877 C182.747898,33.2164666 182.85378,32.7623479 182.903607,32.2771178 L185.18319,32.2771178 C185.133363,33.0733928 184.962085,33.8012269 184.66935,34.4606421 C184.376615,35.1200574 183.981117,35.689261 183.482845,36.1682702 C182.984573,36.6472793 182.399112,37.0174172 181.726445,37.2786949 C181.053778,37.5399727 180.312609,37.6706096 179.502917,37.6706096 C178.506373,37.6706096 177.61261,37.4870958 176.821603,37.1200628 C176.030596,36.7530298 175.361053,36.252255 174.812954,35.6177234 C174.264855,34.9831918 173.844444,34.242916 173.551709,33.3968739 C173.258974,32.5508317 173.112609,31.648815 173.112609,30.6907967 C173.112609,29.7452202 173.258974,28.8494243 173.551709,28.0033821 C173.844444,27.1573399 174.264855,26.4170642 174.812954,25.7825325 C175.361053,25.1480009 176.030596,24.6441157 176.821603,24.2708618 C177.61261,23.8976079 178.506373,23.7109838 179.502917,23.7109838 C180.250325,23.7109838 180.954124,23.8136271 181.614334,24.0189167 C182.274545,24.2242064 182.856892,24.522805 183.361392,24.9147216 C183.865893,25.3066382 184.273847,25.7825297 184.585267,26.3424106 C184.896687,26.9022914 185.089764,27.5430343 185.164505,28.2646585 L182.828866,28.2646585 Z M48.6579721,49.5601956 L48.6579721,45.2579748 L52.1098004,45.2579748 C52.8080369,45.2579748 53.3735017,45.4347767 53.8062117,45.7883856 C54.2389217,46.1419946 54.4552735,46.6822224 54.4552735,47.4090852 C54.4552735,48.135948 54.2389217,48.6761758 53.8062117,49.0297848 C53.3735017,49.3833937 52.8080369,49.5601956 52.1098004,49.5601956 L48.6579721,49.5601956 Z M47.6548767,44.4034241 L47.6548767,54.9232378 L48.6579721,54.9232378 L48.6579721,50.4147462 L52.3310714,50.4147462 C52.8031187,50.4147462 53.2309051,50.3484456 53.6144435,50.2158422 C53.9979819,50.0832388 54.3274266,49.8867924 54.6027875,49.6264969 C54.8781484,49.3662014 55.089583,49.0494315 55.2370978,48.6761776 C55.3846126,48.3029237 55.4583689,47.8805638 55.4583689,47.4090852 C55.4583689,46.9376066 55.3846126,46.5152467 55.2370978,46.1419928 C55.089583,45.7687389 54.8781484,45.451969 54.6027875,45.1916735 C54.3274266,44.931378 53.9979819,44.7349315 53.6144435,44.6023282 C53.2309051,44.4697248 52.8031187,44.4034241 52.3310714,44.4034241 L47.6548767,44.4034241 Z M56.9482606,44.4034241 L56.9482606,54.9232378 L57.951356,54.9232378 L57.951356,49.8254009 L64.2059508,49.8254009 L64.2059508,54.9232378 L65.2090462,54.9232378 L65.2090462,44.4034241 L64.2059508,44.4034241 L64.2059508,48.9708503 L57.951356,48.9708503 L57.951356,44.4034241 L56.9482606,44.4034241 Z M70.2687775,50.5915498 L70.2687775,54.9232378 L71.2718729,54.9232378 L71.2718729,50.5915498 L75.4317685,44.4034241 L74.2369049,44.4034241 L70.7850766,49.7369991 L67.3184969,44.4034241 L66.1383846,44.4034241 L70.2687775,50.5915498 Z M76.8184004,51.4608342 L75.815305,51.4608342 C75.7858021,52.1091172 75.871851,52.6640785 76.0734546,53.1257346 C76.2750581,53.5873908 76.5627076,53.9655502 76.9364116,54.2602244 C77.3101157,54.5548985 77.7624875,54.7734452 78.2935407,54.915871 C78.8245939,55.0582968 79.3998928,55.1295087 80.0194549,55.1295087 C80.6390169,55.1295087 81.1700621,55.0730303 81.6126064,54.9600719 C82.0551507,54.8471135 82.4263906,54.6997786 82.7263373,54.5180629 C83.026284,54.3363472 83.2623041,54.132534 83.4344047,53.9066172 C83.6065052,53.6807003 83.7392665,53.4572425 83.8326925,53.2362369 C83.9261186,53.0152313 83.9851236,52.8065069 84.0097094,52.6100575 C84.0342952,52.4136081 84.0465879,52.2564509 84.0465879,52.1385813 C84.0465879,51.7063925 83.9752901,51.3380554 83.8326925,51.0335588 C83.6900949,50.7290622 83.4934115,50.4712262 83.2426364,50.2600431 C82.9918613,50.04886 82.7017533,49.8720582 82.3723036,49.7296323 C82.042854,49.5872065 81.6912824,49.466883 81.3175783,49.3686583 L78.7508342,48.7351121 C78.5344792,48.6859998 78.3304202,48.6221547 78.138651,48.5435749 C77.9468818,48.4649951 77.7772423,48.3618607 77.6297276,48.2341686 C77.4822128,48.1064765 77.3666613,47.9517749 77.2830696,47.7700592 C77.1994779,47.5883435 77.1576827,47.3747079 77.1576827,47.1291462 C77.1576827,46.7362473 77.231439,46.4071995 77.3789537,46.1419928 C77.5264685,45.8767861 77.7206934,45.6631505 77.9616341,45.5010798 C78.2025749,45.339009 78.4828488,45.2211411 78.8024641,45.1474726 C79.1220794,45.0738041 79.4539827,45.0369703 79.7981838,45.0369703 C80.1718879,45.0369703 80.5283766,45.0885375 80.8676605,45.1916735 C81.2069445,45.2948094 81.5068867,45.4470554 81.7674961,45.6484161 C82.0281055,45.8497767 82.2395402,46.100246 82.4018064,46.3998314 C82.5640727,46.6994167 82.6550388,47.0505648 82.6747074,47.4532861 L83.6778028,47.4532861 C83.6778028,46.9130502 83.5720855,46.4391231 83.3606476,46.0314905 C83.1492098,45.623858 82.8664774,45.2825323 82.512442,45.0075031 C82.1584065,44.7324739 81.7453714,44.5262051 81.2733241,44.3886905 C80.8012769,44.2511759 80.3046513,44.1824197 79.7834324,44.1824197 C79.0458586,44.1824197 78.4410571,44.2880096 77.9690098,44.4991928 C77.4969626,44.7103759 77.1257227,44.9682119 76.8552789,45.2727085 C76.5848352,45.5772051 76.4004445,45.9013417 76.3021013,46.2451282 C76.2037581,46.5889147 76.1545873,46.8884956 76.1545873,47.1438798 C76.1545873,47.5564236 76.2209679,47.9051161 76.3537312,48.1899677 C76.4864945,48.4748194 76.661051,48.7154663 76.877406,48.9119157 C77.093761,49.1083651 77.3469909,49.2655223 77.6371033,49.383392 C77.9272157,49.5012616 78.2246993,49.5994848 78.5295632,49.6780646 L80.8750362,50.2526763 C81.1208942,50.3116111 81.3716655,50.3877341 81.6273578,50.4810476 C81.8830501,50.5743611 82.1166116,50.6946845 82.3280494,50.8420216 C82.5394873,50.9893587 82.7115852,51.1710716 82.8443485,51.387166 C82.9771118,51.6032604 83.0434925,51.8586408 83.0434925,52.1533149 C83.0434925,52.5363913 82.9500679,52.8629835 82.7632158,53.1331015 C82.5763638,53.4032194 82.3428022,53.6242217 82.0625242,53.7961149 C81.7822461,53.9680082 81.4798454,54.0932428 81.1553129,54.1718226 C80.8307804,54.2504023 80.5308382,54.2896916 80.2554773,54.2896916 C79.7735957,54.2896916 79.3212239,54.2430356 78.8983482,54.1497221 C78.4754726,54.0564086 78.1091497,53.901707 77.7993687,53.6856127 C77.4895877,53.4695183 77.246192,53.1797598 77.0691743,52.8163284 C76.8921565,52.4528969 76.8085661,52.0010701 76.8184004,51.4608342 L76.8184004,51.4608342 Z M85.7134964,44.4034241 L85.7134964,54.9232378 L86.7165918,54.9232378 L86.7165918,44.4034241 L85.7134964,44.4034241 Z M96.6147832,47.5858888 L97.6178786,47.5858888 C97.5490384,47.0358304 97.3843161,46.5496254 97.1237066,46.1272592 C96.8630972,45.7048929 96.5385696,45.3488337 96.150114,45.0590708 C95.7616585,44.7693079 95.328955,44.5507612 94.8519906,44.4034241 C94.3750262,44.2560871 93.8857762,44.1824197 93.384226,44.1824197 C92.5581433,44.1824197 91.8328732,44.3322101 91.208394,44.6317954 C90.5839149,44.9313808 90.0651624,45.3340961 89.652121,45.8399533 C89.2390797,46.3458106 88.9293033,46.9277832 88.7227826,47.5858888 C88.516262,48.2439943 88.4130032,48.9364681 88.4130032,49.663331 C88.4130032,50.3901938 88.516262,51.0826676 88.7227826,51.7407732 C88.9293033,52.3988787 89.2390797,52.9783958 89.652121,53.4793418 C90.0651624,53.9802878 90.5839149,54.3805475 91.208394,54.6801329 C91.8328732,54.9797182 92.5581433,55.1295087 93.384226,55.1295087 C94.003788,55.1295087 94.5667943,55.0312854 95.0732616,54.834836 C95.579729,54.6383866 96.0198081,54.3584504 96.3935122,53.995019 C96.7672163,53.6315875 97.0720756,53.189583 97.3080992,52.668992 C97.5441228,52.1484011 97.6965525,51.5639728 97.7653927,50.9156898 L96.7622973,50.9156898 C96.7131257,51.3871684 96.6000327,51.8267173 96.423015,52.2343499 C96.2459973,52.6419824 96.0148943,52.9980416 95.7296991,53.3025382 C95.4445038,53.6070348 95.105225,53.8476818 94.7118523,54.0244862 C94.3184795,54.2012907 93.8759419,54.2896916 93.384226,54.2896916 C92.6859894,54.2896916 92.086105,54.1570903 91.5845548,53.8918835 C91.0830046,53.6266768 90.672428,53.2755288 90.3528127,52.8384288 C90.0331973,52.4013289 89.7971772,51.9053015 89.6447453,51.3503319 C89.4923134,50.7953623 89.4160986,50.2330343 89.4160986,49.663331 C89.4160986,49.0838052 89.4923134,48.5190216 89.6447453,47.9689632 C89.7971772,47.4189049 90.0331973,46.9253331 90.3528127,46.4882332 C90.672428,46.0511332 91.0830046,45.6999851 91.5845548,45.4347784 C92.086105,45.1695717 92.6859894,45.0369703 93.384226,45.0369703 C93.7677644,45.0369703 94.1340872,45.0934487 94.4832055,45.2064071 C94.8323238,45.3193655 95.1519343,45.4838895 95.4420467,45.6999838 C95.7321591,45.9160782 95.9780133,46.1837365 96.1796169,46.5029668 C96.3812204,46.8221971 96.5262744,47.1831675 96.6147832,47.5858888 L96.6147832,47.5858888 Z M100.78943,50.7978207 L102.898881,45.4053112 L104.934575,50.7978207 L100.78943,50.7978207 Z M102.382582,44.4034241 L98.1489292,54.9232378 L99.2110302,54.9232378 L100.479651,51.6523714 L105.273857,51.6523714 L106.557229,54.9232378 L107.634081,54.9232378 L103.503688,44.4034241 L102.382582,44.4034241 Z M108.592922,44.4034241 L108.592922,54.9232378 L115.496579,54.9232378 L115.496579,54.0686871 L109.596018,54.0686871 L109.596018,44.4034241 L108.592922,44.4034241 Z M119.494209,44.4034241 L119.494209,45.2579748 L123.152557,45.2579748 L123.152557,54.9232378 L124.155653,54.9232378 L124.155653,45.2579748 L127.828752,45.2579748 L127.828752,44.4034241 L119.494209,44.4034241 Z M128.817096,44.4034241 L128.817096,54.9232378 L129.820191,54.9232378 L129.820191,49.8254009 L136.074786,49.8254009 L136.074786,54.9232378 L137.077882,54.9232378 L137.077882,44.4034241 L136.074786,44.4034241 L136.074786,48.9708503 L129.820191,48.9708503 L129.820191,44.4034241 L128.817096,44.4034241 Z M139.202084,44.4034241 L139.202084,54.9232378 L146.548282,54.9232378 L146.548282,54.0686871 L140.205179,54.0686871 L140.205179,49.9138027 L146.076238,49.9138027 L146.076238,49.059252 L140.205179,49.059252 L140.205179,45.2579748 L146.474525,45.2579748 L146.474525,44.4034241 L139.202084,44.4034241 Z M148.952761,49.3981256 L148.952761,45.2579748 L152.699617,45.2579748 C153.466694,45.2579748 154.037076,45.444599 154.41078,45.8178529 C154.784484,46.1911068 154.971334,46.7018676 154.971334,47.3501507 C154.971334,47.6742922 154.90987,47.9615952 154.786941,48.2120682 C154.664012,48.4625412 154.49929,48.6761767 154.292769,48.8529812 C154.086248,49.0297857 153.845311,49.1648426 153.56995,49.2581561 C153.294589,49.3514696 153.004481,49.3981256 152.699617,49.3981256 L148.952761,49.3981256 Z M147.949666,44.4034241 L147.949666,54.9232378 L148.952761,54.9232378 L148.952761,50.2526763 L152.758623,50.2526763 C153.23067,50.2330313 153.60191,50.3116099 153.872354,50.4884144 C154.142798,50.6652189 154.349315,50.8984991 154.491913,51.188262 C154.634511,51.4780248 154.727935,51.8070727 154.77219,52.1754153 C154.816444,52.543758 154.848405,52.9145507 154.868074,53.2878046 C154.877908,53.3958518 154.887742,53.523542 154.897577,53.6708791 C154.907411,53.8182161 154.919704,53.9680065 154.934455,54.1202548 C154.949206,54.2725031 154.973792,54.419838 155.008212,54.5622638 C155.042632,54.7046897 155.089344,54.8250131 155.14835,54.9232378 L156.254706,54.9232378 C156.146528,54.7955457 156.060479,54.6162883 155.996556,54.3854602 C155.932633,54.1546322 155.885921,53.9090741 155.856418,53.6487786 C155.826915,53.3884831 155.807246,53.1306471 155.797412,52.8752629 C155.787578,52.6198786 155.777744,52.4037875 155.767909,52.2269831 C155.748241,51.912664 155.706445,51.6204499 155.642522,51.3503319 C155.578599,51.080214 155.475341,50.8420226 155.332743,50.6357507 C155.190145,50.4294788 155.005755,50.2600438 154.779565,50.1274404 C154.553376,49.9948371 154.268185,49.9039806 153.923984,49.8548682 L153.923984,49.8254009 C154.602552,49.6878863 155.113929,49.373572 155.45813,48.8824485 C155.802331,48.3913249 155.974429,47.8118078 155.974429,47.1438798 C155.974429,46.6724012 155.88838,46.2623192 155.716279,45.9136215 C155.544179,45.5649238 155.313076,45.2800764 155.022963,45.0590708 C154.732851,44.8380652 154.393572,44.6735413 154.005117,44.5654941 C153.616661,44.4574469 153.206084,44.4034241 152.773374,44.4034241 L147.949666,44.4034241 Z M159.278743,50.7978207 L161.388194,45.4053112 L163.423887,50.7978207 L159.278743,50.7978207 Z M160.871895,44.4034241 L156.638242,54.9232378 L157.700343,54.9232378 L158.968964,51.6523714 L163.76317,51.6523714 L165.046542,54.9232378 L166.123394,54.9232378 L161.993001,44.4034241 L160.871895,44.4034241 Z M168.085331,49.5601956 L168.085331,45.2579748 L171.537159,45.2579748 C172.235396,45.2579748 172.80086,45.4347767 173.23357,45.7883856 C173.66628,46.1419946 173.882632,46.6822224 173.882632,47.4090852 C173.882632,48.135948 173.66628,48.6761758 173.23357,49.0297848 C172.80086,49.3833937 172.235396,49.5601956 171.537159,49.5601956 L168.085331,49.5601956 Z M167.082235,44.4034241 L167.082235,54.9232378 L168.085331,54.9232378 L168.085331,50.4147462 L171.75843,50.4147462 C172.230477,50.4147462 172.658264,50.3484456 173.041802,50.2158422 C173.425341,50.0832388 173.754785,49.8867924 174.030146,49.6264969 C174.305507,49.3662014 174.516942,49.0494315 174.664457,48.6761776 C174.811971,48.3029237 174.885728,47.8805638 174.885728,47.4090852 C174.885728,46.9376066 174.811971,46.5152467 174.664457,46.1419928 C174.516942,45.7687389 174.305507,45.451969 174.030146,45.1916735 C173.754785,44.931378 173.425341,44.7349315 173.041802,44.6023282 C172.658264,44.4697248 172.230477,44.4034241 171.75843,44.4034241 L167.082235,44.4034241 Z M179.311148,50.5915498 L179.311148,54.9232378 L180.314244,54.9232378 L180.314244,50.5915498 L184.47414,44.4034241 L183.279276,44.4034241 L179.827448,49.7369991 L176.360868,44.4034241 L175.180756,44.4034241 L179.311148,50.5915498 Z" id="NORTH-FLORIDA"></path><g id="Group-2" transform="translate(0.937504, 0.541174)"><path d="M0.172124395,11.7869271 C0.172124395,11.7869271 17.2767316,26.8683233 17.2767316,39.2654125 C17.2767316,50.5602501 2.1752495,56.201185 2.1752495,56.201185 C2.1752495,56.201185 17.2767316,52.9463007 26.1086923,41.3143038 C34.940653,29.6823069 35.7991352,12.9151141 32.9765498,0.427251218 C32.9765498,0.427251218 32.2221261,6.58689283 29.4255553,12.1111188 C27.1882987,16.5460607 23.7023407,20.6049404 17.7059727,20.6049404 C8.5878513,20.617908 0.172124395,11.7869271 0.172124395,11.7869271 L0.172124395,11.7869271 Z" id="svg_2"></path><ellipse id="svg_9" cx="19.0331806" cy="11.3193147" rx="5.05984225" ry="5.04442254"></ellipse></g></g></g></g></g></g></svg> 