<svg width="40" height="40" xmlns="http://www.w3.org/2000/svg"><path d="M-26.003 31.003L25.5-20.5m-46.503 51.503L30.5-20.5m-46.503 51.503L35.5-20.5m-46.503 51.503L40.5-20.5m-53.503 58.503L38.5-13.5m-51.503 56.503L38.5-8.5M.997 49.003L52.5-2.5M5.997 49.003L57.5-2.5M10.997 49.003L62.5-2.5M15.997 49.003L67.5-2.5M20.997 49.003L72.5-2.5M22.997 52.003L74.5.5m-84.503 44.503L41.5-6.5M-9.003 49.003L42.5-2.5M-4.003 49.003L47.5-2.5" stroke="#7C4053" fill="none" stroke-linecap="square" opacity=".255"/></svg>